<svg xmlns="http://www.w3.org/2000/svg" width="328" height="48" fill="none" viewBox="0 0 328 48"><path fill="#1A1A18" d="m75.333 34.995-7.67-23.852h-1.83L57.81 34.38c-1.236 3.576-1.383 3.917-2.554 4.293l-.971.285V40h7.398v-1.062l-1.371-.309c-1.048-.266-1.248-.671-1.248-1.326 0-.492.073-1.254.635-2.796l1.683-5.084h8.06l1.955 6.255c.303.958.367 1.5.367 1.786 0 .48 0 .895-1.284 1.203l-1.103.277v1.054h9.439v-1.062l-1.204-.275c-.875-.159-1.35-.735-2.28-3.668m-6.402-7.2h-7.02l3.63-10.849zm26.235 10.49c-.288-.222-.556-.561-.556-1.539V24.097c0-3.645-2.093-5.415-6.396-5.415-2.317 0-6.695.746-6.695 3.568 0 1.234.736 1.998 1.917 1.998 1.353 0 2.014-.772 2.211-2.568.158-1.032.418-1.518 2.117-1.518 3.123 0 3.27 1.417 3.27 4.13v4.139l-4.828 1.262c-2.343.64-5.882 1.61-5.882 5.636 0 3.195 2.235 5.181 5.836 5.181 1.908 0 3.838-.806 5.114-2.099.357 1.401 1.344 2.059 3.058 2.059 1.084 0 2.242-.418 2.856-.807l.182-.113v-.82l-.371-.018c-.84-.039-1.379-.079-1.835-.431m-7.886.038c-2.054 0-3.231-1.248-3.231-3.423 0-2.504 1.274-3.627 4.874-4.294l2.113-.42v6.478c-.76 1.056-2.12 1.659-3.754 1.659m19.339-17.998c1.417 0 1.491.302 1.897 1.971.231 1.079.641 2.075 2.058 2.075 1.332 0 2.066-.738 2.066-2.076 0-1.744-1.445-3.609-5.499-3.609-2.266 0-4.673 1.067-6.439 2.855-1.496 1.514-3.28 4.277-3.28 8.845 0 6.318 3.201 10.09 8.56 10.09 3.046 0 5.479-1.357 6.537-2.702l.083-.104v-1.28l-.599.387c-1.324.858-2.917 1.312-4.604 1.312-5.139 0-6.217-4.873-6.217-8.96 0-5.1 2.286-8.804 5.433-8.804M130.975 37.1V24.332c0-4.014-1.54-5.65-5.313-5.65-2.057 0-4.687 1.047-6.479 2.184v-5.999c0-1.068.024-2.213.074-3.397l.091-1.784-.571-.12-5.819.59v.879l1.376.607c1.25.6 1.274.612 1.274 1.85V37.1c0 1.282-.038 1.292-1.008 1.546l-1.455.347v1.008h8.65v-1.01l-1.484-.34c-1.086-.287-1.128-.297-1.128-1.55V22.398l.161-.064c1.25-.5 2.959-1.187 5.271-1.187 2.159 0 2.784.794 2.784 3.54v12.411c0 1.254-.082 1.276-1.08 1.546l-1.496.345V40h8.65v-1.01l-1.484-.34c-.977-.259-1.016-.267-1.016-1.55m11.481-18.42c-5.179 0-9.084 4.76-9.084 11.071 0 6.913 3.345 10.719 9.418 10.719 2.589 0 5.008-1.035 6.633-2.839l.098-.11v-1.295l-.598.387c-1.385.897-3.21 1.353-5.425 1.353-5.261 0-6.366-4.937-6.366-9.08v-.201h12.756l.006-.381c.061-3.52-.707-6.118-2.282-7.719-1.243-1.264-2.979-1.907-5.158-1.907m-.111 1.482c2.59 0 3.733 2.034 3.79 6.78l-8.935.287c.357-4.497 2.22-7.067 5.145-7.067m26.611 16.94V24.332c0-4.014-1.55-5.65-5.35-5.65-2.399 0-5.114 1.392-6.457 2.18l.063-1.909-.575-.123-5.398.891v.843l1.288.65c1.002.505 1.062.535 1.062 1.626v14.258q0 1.282-1.007 1.546l-1.456.347V40h8.65v-1.012l-1.518-.339c-1.054-.286-1.094-.296-1.094-1.55V22.36l.143-.056c1.244-.488 2.945-1.158 5.291-1.158 2.159 0 2.784.813 2.784 3.619v12.333c0 1.264-.02 1.268-1.08 1.546l-1.496.345v1.01h8.65v-1.01l-1.484-.34q-1.016-.267-1.016-1.55m12.033-18.419c-5.179 0-9.083 4.76-9.083 11.071 0 6.913 3.344 10.719 9.418 10.719 2.588 0 5.005-1.035 6.632-2.839l.099-.11v-1.295l-.599.387c-1.385.897-3.209 1.353-5.425 1.353-5.261 0-6.366-4.937-6.366-9.08v-.201h12.757l.006-.381c.06-3.52-.708-6.118-2.282-7.719-1.244-1.264-2.98-1.907-5.159-1.907m-.113 1.482c2.591 0 3.734 2.034 3.79 6.78l-8.934.287c.357-4.497 2.219-7.067 5.144-7.067m19.181-1.48c-1.705 0-3.38 1.266-4.9 2.552l.028-2.122-.548-.29-5.417.898v.843l1.079.542c1.201.579 1.272.613 1.272 1.81v14.142q0 1.322-1.008 1.586l-1.456.347v1.008h9.059v-1.024l-2.183-.413c-.738-.14-.84-.32-.84-1.504v-14.15c1.651-1.298 2.65-1.764 3.007-1.764.198 0 .206 0 .454.56l.05.116c.216.482.666 1.485 1.921 1.485 1.256 0 2.03-.846 2.03-2.154 0-1.547-.953-2.47-2.552-2.47m51.288-2.403c1.264 0 2.254-1.016 2.254-2.312s-.99-2.353-2.254-2.353-2.215 1.033-2.215 2.353.953 2.312 2.215 2.312M238.77 18.68c-5.179 0-9.083 4.76-9.083 11.071 0 6.913 3.344 10.719 9.418 10.719 2.588 0 5.005-1.035 6.632-2.839l.099-.11v-1.295l-.599.387c-1.385.897-3.209 1.353-5.425 1.353-5.261 0-6.366-4.937-6.366-9.08v-.201h12.757l.006-.381c.06-3.52-.708-6.118-2.282-7.719-1.244-1.264-2.98-1.907-5.159-1.907m-.113 1.482c2.591 0 3.734 2.034 3.79 6.78l-8.934.287c.357-4.497 2.219-7.067 5.144-7.067m14.636 16.94V23.664c0-2.685.104-4.047.145-4.346l.046-.338-.558-.15-5.633.89v.844l1.149.58c1.23.61 1.276.631 1.276 1.773v14.18q0 1.282-1.007 1.545l-1.456.347v1.008h8.576v-1.004l-1.375-.349c-1.075-.274-1.163-.296-1.163-1.548m10.682 1.108c-1.546 0-2.149-.597-2.149-2.127V21.303h3.536l.187-1.913h-3.723v-4.478h-.879l-.095.248c-1.018 2.66-2.423 4.226-4.558 5.082l-.244.097v.964h2.202v15.01c0 2.554 1.582 4.08 4.231 4.08 1.869 0 3.592-.921 4.584-1.784l.133-.115v-1.086l-1.363.231c-.715.267-.794.565-1.862.565m20.787-2.008V19.049l-.528-.224-5.324.9v.836l1.115.587c1.161.558 1.161.608 1.161 1.929v13.577c-1.286.576-3.13 1.276-5.06 1.276-2.066 0-3.156-1.198-3.156-3.462V19.05l-.529-.224-5.324.9v.836l1.107.582c1.147.585 1.169.597 1.169 1.893V34.9c0 3.491 1.924 5.493 5.278 5.493 2.592 0 4.806-1.14 6.515-2.252v2.044l.524.22 5.514-.81v-.875l-1.264-.492c-.99-.359-1.2-.488-1.2-2.032m21.649.904V24.332c0-4.014-1.55-5.65-5.352-5.65-2.399 0-5.115 1.392-6.457 2.18l.062-1.909-.574-.123-5.399.891v.843l1.289.65c1.001.505 1.062.535 1.062 1.626v14.258q0 1.282-1.008 1.546l-1.456.347V40h8.651v-1.012l-1.518-.339c-1.055-.286-1.095-.296-1.095-1.55V22.36l.143-.056c1.244-.488 2.945-1.158 5.292-1.158 2.159 0 2.784.813 2.784 3.619v12.333c0 1.264-.02 1.268-1.081 1.546l-1.496.345v1.01h8.651v-1.01l-1.484-.34q-1.016-.267-1.016-1.55m15.135-1.959h-5.747c-1.915 0-2.075-.59-2.075-1.145 0-.67.512-1.381 1.043-1.825.852.383 1.818.563 3.009.563 3.643 0 7.33-2.413 7.33-7.026 0-1.743-.437-3.203-1.276-4.308h2.992l.612-2.67-5.64.953c-1.107-.647-2.52-1-4.018-1-4.711 0-7.255 3.782-7.255 7.34 0 2.286 1.093 4.268 2.951 5.407-1.491.957-2.427 2.485-2.427 4.02 0 1.326.597 2.283 1.704 2.769-2.252.976-3.308 2.423-3.308 4.497 0 3.066 2.82 4.826 7.739 4.826 7.293 0 9.94-4.437 9.94-7.418 0-3.306-1.875-4.983-5.574-4.983m-3.77-14.976c2.425 0 3.605 1.98 3.605 6.054 0 3.439-1.18 5.112-3.605 5.112s-3.529-1.917-3.529-5.858c0-3.522 1.187-5.308 3.529-5.308m-.036 25.857c-3.35 0-4.911-1.225-4.911-3.854 0-1.63.714-2.87 2.012-3.501h5.885c2.858 0 3.418.995 3.418 2.715 0 3.205-3.215 4.64-6.404 4.64M209.812 19.333h.984l.339-.889c.485-1.282.905-2.389 1.522-3.68.556-1.295.524-2.075 6.964-2.075h3.232L209.23 38.61l-.051.089V40h17.974l.705-8.392h-.994l-.183.5c-.609 1.659-1.135 3.09-1.798 4.14-1.302 2.121-1.014 2.248-8.422 2.248h-3.006l13.712-26.093v-1.26h-16.813l-.54 8.19z"/><path fill="#3B3B3A" d="M30.92 8.145 30.859 8H12.571l-.06.145 9.142 21.334.062-.145.063.145z"/><path fill="#209AD6" d="M17.143 18.666 12.573 8h-.002L0 37.333 1.066 40h16.079l4.57-10.666z"/><path fill="#FFD500" d="M30.859 8h-.002l-4.57 10.666-4.572 10.668L26.287 40h16.077l1.066-2.667z"/><path fill="#45B4E8" d="M8.001 40h9.144l4.57-10.666-4.572-10.668z"/><path fill="#209AD6" d="M12.573 8 0 37.333 1.066 40h6.935l9.142-21.334z"/><path fill="#3B3B3A" d="m21.715 8-4.572 10.666 4.572 10.668 4.572-10.668z"/><path fill="#2C2C2B" d="M21.715 8h-9.142l4.57 10.666z"/><path fill="#494948" d="M30.857 8h-9.142l4.572 10.666z"/><path fill="#FFD500" d="M21.715 29.334 26.287 40h9.142l-9.142-21.334z"/><path fill="#FFE13F" d="M30.857 8h.002L43.43 37.333 42.364 40h-6.935l-9.142-21.334z"/></svg>