<?xml version="1.0" encoding="UTF-8" standalone="no"?>
<!-- Created with Inkscape (http://www.inkscape.org/) -->

<svg
   xmlns:dc="http://purl.org/dc/elements/1.1/"
   xmlns:cc="http://creativecommons.org/ns#"
   xmlns:rdf="http://www.w3.org/1999/02/22-rdf-syntax-ns#"
   xmlns:svg="http://www.w3.org/2000/svg"
   xmlns="http://www.w3.org/2000/svg"
   xmlns:sodipodi="http://sodipodi.sourceforge.net/DTD/sodipodi-0.dtd"
   xmlns:inkscape="http://www.inkscape.org/namespaces/inkscape"
   width="111.75781"
   height="47.929688"
   id="svg4414"
   version="1.1"
   inkscape:version="0.48.1 "
   sodipodi:docname="Neues Dokument 3">
  <defs
     id="defs4416" />
  <sodipodi:namedview
     id="base"
     pagecolor="#ffffff"
     bordercolor="#666666"
     borderopacity="1.0"
     inkscape:pageopacity="0.0"
     inkscape:pageshadow="2"
     inkscape:zoom="13.872571"
     inkscape:cx="55.87891"
     inkscape:cy="23.964817"
     inkscape:document-units="px"
     inkscape:current-layer="layer1"
     showgrid="false"
     fit-margin-top="0"
     fit-margin-left="0"
     fit-margin-right="0"
     fit-margin-bottom="0"
     inkscape:window-width="1680"
     inkscape:window-height="990"
     inkscape:window-x="-4"
     inkscape:window-y="-4"
     inkscape:window-maximized="1" />
  <metadata
     id="metadata4419">
    <rdf:RDF>
      <cc:Work
         rdf:about="">
        <dc:format>image/svg+xml</dc:format>
        <dc:type
           rdf:resource="http://purl.org/dc/dcmitype/StillImage" />
        <dc:title></dc:title>
      </cc:Work>
    </rdf:RDF>
  </metadata>
  <g
     inkscape:label="Ebene 1"
     inkscape:groupmode="layer"
     id="layer1"
     transform="translate(-62.18541,-471.29713)">
    <path
       inkscape:connector-curvature="0"
       d="m 63.143052,518.29333 109.842528,0 0,-46.0625 -109.842528,0 0,46.0625 z"
       style="fill:#ed1c24;fill-opacity:1;fill-rule:nonzero;stroke:none"
       id="path972" />
    <path
       inkscape:connector-curvature="0"
       d="m 76.405565,508.00545 13.506237,0 0,-1.82287 c -2.708737,0 -3.586225,-0.16 -3.586225,-2.182 l 0,-8.81238 c 0,-0.195 0.115,-0.27762 0.266225,-0.27762 l 9.38625,0 c 0.153775,0 0.267525,0.0825 0.267525,0.27762 l 0,8.81238 c 0,2.022 -0.877537,2.182 -3.586275,2.182 l 0,1.82287 13.505028,0 0,-1.82287 -0.95375,0 c -1.75377,0 -2.365,-0.91325 -2.365,-2.182 l 0,-18.61375 c 0,-2.57875 1.14499,-2.69625 3.31875,-2.69625 l 0,-1.82613 -13.505028,0 0,1.82613 c 2.89875,0 3.586275,0.1175 3.586275,2.69625 l 0,7.42 c 0,0.19887 -0.11375,0.28125 -0.267525,0.28125 l -9.38625,0 c -0.15125,0 -0.266225,-0.0825 -0.266225,-0.28125 l 0,-7.42 c 0,-2.57875 0.687488,-2.69625 3.586225,-2.69625 l 0,-1.82613 -13.506237,0 0,1.82613 c 2.174987,0 3.320012,0.1175 3.320012,2.69625 l 0,18.61375 c 0,1.26875 -0.611275,2.182 -2.365,2.182 l -0.955012,0 0,1.82287 m 30.698745,0 10.49251,0 0,-1.82287 c -3.54876,0 -4.425,-1.07313 -4.425,-5.47575 l 0,-11.98625 c 0,-0.19863 0.0375,-0.3975 0.26626,-0.3975 0.15248,0 0.26749,0.19887 16.44375,19.68237 l 2.59499,0 0,-19.83862 c 0,-4.4075 0.685,-5.47625 4.15749,-5.47625 l 0,-1.82613 -10.49123,0 0,1.82613 c 3.54748,0 4.42498,1.06875 4.42498,5.47625 l 0,9.72262 c 0,0.31488 -0.0762,0.43625 -0.19124,0.43625 -0.15251,0 -0.2275,-0.0812 -0.61,-0.51887 l -14.00124,-16.94238 -8.73752,0 0,1.82613 c 1.52626,0 1.98375,0.1175 4.23626,2.89625 l 0,15.12 c 0,4.40262 -0.68749,5.47575 -4.16001,5.47575 l 0,1.82287"
       style="fill:#ffffff;fill-opacity:1;fill-rule:nonzero;stroke:none"
       id="path974" />
    <path
       inkscape:connector-curvature="0"
       d="m 143.33679,508.00545 0,-1.82287 c -2.13622,0 -3.58748,-0.91325 -3.58748,-2.30313 0,-0.835 0.3825,-2.18125 0.57377,-2.81762 l 0.56999,-1.98238 c 0.115,-0.43762 0.3825,-0.51512 0.95375,-0.51512 l 7.5925,0 c 0.42126,0 0.68875,0.0387 0.84126,0.47637 0.34248,1.06875 1.52623,4.24625 1.52623,5.15488 0,1.39012 -0.95624,1.987 -3.05375,1.987 l -0.9925,0 0,1.82287 14.53623,0 0,-1.82287 c -2.05997,0 -2.86125,-0.79575 -3.85371,-3.732 l -7.40127,-21.58613 -6.10375,0 -6.18127,18.56988 c -1.79373,5.3975 -3.58622,6.74825 -5.07373,6.74825 l 0,1.82287 9.65373,0 z m -1.03247,-11.2685 c -0.34249,0 -0.495,-0.0387 -0.495,-0.19887 0,-0.19863 0.11625,-0.47625 0.495,-1.6275 l 2.36751,-7.41863 c 0.53375,-1.745 0.60996,-2.02637 0.83748,-2.02637 0.23002,0 0.23002,0.28137 0.87627,2.14262 l 2.55875,7.4625 c 0.34248,0.95238 0.45875,1.3075 0.45875,1.42863 0,0.23762 -0.34377,0.23762 -0.61,0.23762 l -6.48876,0"
       style="fill:#ffffff;fill-opacity:1;fill-rule:evenodd;stroke:none"
       id="path976" />
    <g
       transform="matrix(1.25,0,0,-1.25,-439.99938,1971.847)"
       id="g978">
      <path
         inkscape:connector-curvature="0"
         d="m 402.51395,1199.693 87.87402,0 0,-36.85 -87.87402,0 0,36.85 z"
         style="fill:none;stroke:#ffffff;stroke-width:1.51100004;stroke-linecap:butt;stroke-linejoin:miter;stroke-miterlimit:3.86400008;stroke-opacity:1;stroke-dasharray:none"
         id="path980" />
    </g>
  </g>
</svg>
